<?xml version="1.0" encoding="UTF-8"?>
<svg id="Warstwa_2" data-name="Warstwa 2" xmlns="http://www.w3.org/2000/svg" viewBox="0 0 2545.11 444.86">
  <defs>
    <style>
      .cls-1 {
        fill: #d00e1c;
      }
    </style>
  </defs>
  <g id="Warstwa_1-2" data-name="Warstwa 1">
    <g>
      <path d="M76.41,7.77v185.2h42.09c75.11,0,87.42-6.48,112.02-54.39L297.22,7.77h82.24l-68.64,135.98c-19.43,38.85-40.15,64.11-75.76,79.65,40.79,11.01,60.87,33.67,86.77,84.18l70.58,137.28h-85.48l-66.7-129.51c-23.96-46.62-39.5-53.1-121.74-53.1h-42.09v182.61H0V7.77h76.41Z"/>
      <path d="M667.61,7.77c126.92,0,197.5,72.52,197.5,219.52s-69.93,217.57-197.5,217.57h-59.57c-127.56,0-197.5-71.23-197.5-217.57S481.12,7.77,608.04,7.77h59.57ZM608.04,84.18c-84.18,0-121.09,42.74-121.09,143.11s36.26,141.16,121.09,141.16h59.57c84.18,0,120.44-41.44,120.44-141.81s-36.26-142.46-120.44-142.46h-59.57Z"/>
      <path d="M1292.49,7.77v76.41h-224.05c-39.5,0-56.98,21.37-56.98,51.8,0,26.55,13.6,51.8,64.75,51.8h102.31c119.15,0,146.99,66.05,146.99,128.86,0,73.82-39.5,128.21-139.22,128.21h-243.47v-76.41h246.06c41.44,0,60.22-22.66,60.22-54.39,0-28.49-14.89-54.39-68.64-54.39h-101.66c-116.56,0-143.75-65.4-143.75-126.27,0-72.52,38.85-125.62,135.98-125.62h221.46Z"/>
      <path d="M1453.72,444.86h-84.18l153.47-388.52c16.19-40.79,45.98-56.34,91.95-56.34s75.11,15.54,90.66,56.34l147.64,388.52h-84.83l-132.75-351.61c-3.89-10.36-11.01-14.89-21.37-14.89s-17.48,4.53-22.02,14.89l-138.57,351.61Z"/>
    </g>
    <path class="cls-1" d="M2139.85,8.93l144.15,157.33,149.91-157.33h108.73l-204.28,216.63,206.75,218.28h-111.2l-153.21-167.21-156.5,167.21h-108.73l211.69-226.52L2029.47,8.93h110.38Z"/>
  </g>
</svg>