<?xml version="1.0" encoding="UTF-8"?>
<svg id="Warstwa_2" data-name="Warstwa 2" xmlns="http://www.w3.org/2000/svg" viewBox="0 0 37.37 42.68">
  <defs>
    <style>
      .cls-1 {
        fill: #d00e1c;
      }

      .cls-2 {
        fill: #231f20;
      }

      .cls-3 {
        fill: #fff;
      }
    </style>
  </defs>
  <g id="Layer_1" data-name="Layer 1">
    <g>
      <path class="cls-2" d="M20.39,42.68H5.23c-2.88,0-5.23-2.34-5.23-5.23V7.1C0,4.22,2.34,1.87,5.23,1.87h15.17c2.88,0,5.23,2.34,5.23,5.23v30.35c0,2.88-2.34,5.23-5.23,5.23ZM5.23,3.36c-2.06,0-3.74,1.68-3.74,3.74v30.35c0,2.06,1.68,3.74,3.74,3.74h15.17c2.06,0,3.74-1.68,3.74-3.74V7.1c0-2.06-1.68-3.74-3.74-3.74H5.23Z"/>
      <path class="cls-2" d="M24.87,35.32H.75c-.41,0-.75-.33-.75-.75V7.1c0-.41.33-.75.75-.75h24.13c.41,0,.75.33.75.75v27.48c0,.41-.33.75-.75.75ZM1.49,33.83h22.64V7.85H1.49v25.99Z"/>
      <path class="cls-2" d="M15.1,38.81h-4.58c-.41,0-.75-.33-.75-.75s.33-.75.75-.75h4.58c.41,0,.75.33.75.75s-.33.75-.75.75Z"/>
      <g>
        <path class="cls-1" d="M33.22,20.6c4.54-4.54,4.54-11.91,0-16.46C28.68-.4,21.31-.4,16.77,4.15c-3.45,3.45-4.28,8.53-2.49,12.77l-1.16,7.34,7.34-1.16h0c4.23,1.79,9.31.96,12.77-2.49Z"/>
        <path class="cls-2" d="M13.12,25c-.2,0-.39-.08-.53-.22-.17-.17-.25-.41-.21-.64l1.13-7.14c-.88-2.19-1.12-4.57-.69-6.9.46-2.46,1.64-4.7,3.42-6.48,4.83-4.83,12.68-4.83,17.51,0,4.83,4.83,4.83,12.68,0,17.51h0c-1.78,1.78-4.02,2.96-6.48,3.42-2.33.43-4.71.2-6.9-.68l-7.14,1.13s-.08,0-.12,0ZM25,1.49c-2.79,0-5.58,1.06-7.7,3.18-1.56,1.56-2.6,3.53-3,5.7-.39,2.11-.16,4.28.67,6.25.05.13.07.27.05.41l-1,6.33,6.32-1c.14-.02.28-.01.42.05,1.97.83,4.14,1.07,6.25.67,2.16-.4,4.14-1.44,5.7-3h0c4.25-4.25,4.25-11.16,0-15.4-2.12-2.12-4.91-3.18-7.7-3.18Z"/>
      </g>
      <g>
        <g>
          <rect class="cls-3" x="17.96" y="7.62" width="14.15" height="9.76"/>
          <path class="cls-2" d="M32.12,18.12h-14.15c-.41,0-.75-.33-.75-.75V7.62c0-.41.33-.75.75-.75h14.15c.41,0,.75.33.75.75v9.76c0,.41-.33.75-.75.75ZM18.71,16.63h12.66v-8.27h-12.66v8.27Z"/>
        </g>
        <g>
          <polygon class="cls-3" points="17.96 7.62 25.04 13.96 32.12 7.62 17.96 7.62"/>
          <path class="cls-2" d="M25.04,14.71c-.18,0-.36-.06-.5-.19l-7.08-6.34c-.23-.21-.31-.53-.2-.82.11-.29.39-.48.7-.48h14.15c.31,0,.59.19.7.48.11.29.03.61-.2.82l-7.08,6.34c-.14.13-.32.19-.5.19ZM19.91,8.36l5.13,4.6,5.13-4.6h-10.26Z"/>
        </g>
      </g>
    </g>
  </g>
</svg>